{"accessors" : [{"bufferView" : 0, "byteOffset" : 0, "componentType" : 5123, "count" : 6252, "type" : "SCALAR", "max" : [6251], "min" : [0]}, {"bufferView" : 1, "byteOffset" : 0, "componentType" : 5126, "count" : 6252, "type" : "VEC3", "max" : [0.4343090057373047, 0.9700930118560791, 0.4330019950866699], "min" : [-0.43305501341819763, -1.0274896621704102, -0.4341900050640106], "name" : "POSITION"}, {"bufferView" : 1, "byteOffset" : 12, "componentType" : 5126, "count" : 6252, "type" : "VEC3", "max" : [0.9984472990036011, 1.0000044107437134, 0.9966493844985962], "min" : [-0.9986013770103455, -1.0000044107437134, -0.999756932258606], "name" : "NORMAL"}, {"bufferView" : 1, "byteOffset" : 24, "componentType" : 5126, "count" : 6252, "type" : "VEC2", "max" : [0.9980469942092896, -0.0019530057907104492], "min" : [0.0019529999699443579, -0.9980469942092896], "name" : "TEXCOORD_0"}, {"bufferView" : 0, "byteOffset" : 12504, "componentType" : 5123, "count" : 7758, "type" : "SCALAR", "max" : [7757], "min" : [0]}, {"bufferView" : 2, "byteOffset" : 0, "componentType" : 5126, "count" : 7758, "type" : "VEC3", "max" : [0.4522075355052948, 0.6993008255958557, 0.45347487926483154], "min" : [-0.4490451514720917, -0.21204014122486115, -0.44566649198532104], "name" : "POSITION"}, {"bufferView" : 2, "byteOffset" : 12, "componentType" : 5126, "count" : 7758, "type" : "VEC3", "max" : [0.999708890914917, 1.0000044107437134, 0.9963786602020264], "min" : [-0.997228741645813, -1.0000044107437134, -0.9925967454910278], "name" : "NORMAL"}, {"bufferView" : 2, "byteOffset" : 24, "componentType" : 5126, "count" : 7758, "type" : "VEC2", "max" : [0.9980469942092896, -0.036559998989105225], "min" : [0.0019529999699443579, -0.9980469942092896], "name" : "TEXCOORD_0"}, {"bufferView" : 0, "byteOffset" : 28020, "componentType" : 5123, "count" : 24432, "type" : "SCALAR", "max" : [24431], "min" : [0]}, {"bufferView" : 3, "byteOffset" : 0, "componentType" : 5126, "count" : 24432, "type" : "VEC3", "max" : [0.6674435138702393, 0.5002555847167969, 0.7313247919082642], "min" : [-0.7427937984466553, -1.4157207012176514, -0.676288366317749], "name" : "POSITION"}, {"bufferView" : 3, "byteOffset" : 12, "componentType" : 5126, "count" : 24432, "type" : "VEC3", "max" : [1.0000044107437134, 0.9996611475944519, 1.0000042915344238], "min" : [-1.0000042915344238, -0.9966315627098083, -1.0000042915344238], "name" : "NORMAL"}, {"bufferView" : 3, "byteOffset" : 24, "componentType" : 5126, "count" : 24432, "type" : "VEC2", "max" : [0.9980469942092896, -0.0028769969940185547], "min" : [0.0019529999699443579, -0.9980469942092896], "name" : "TEXCOORD_0"}, {"bufferView" : 0, "byteOffset" : 76884, "componentType" : 5123, "count" : 3366, "type" : "SCALAR", "max" : [3365], "min" : [0]}, {"bufferView" : 4, "byteOffset" : 0, "componentType" : 5126, "count" : 3366, "type" : "VEC3", "max" : [0.3912252187728882, 0.45405271649360657, 0.4654902219772339], "min" : [-0.432321697473526, -0.0051527367904782295, -0.4605240225791931], "name" : "POSITION"}, {"bufferView" : 4, "byteOffset" : 12, "componentType" : 5126, "count" : 3366, "type" : "VEC3", "max" : [0.9971463680267334, 0.9883334040641785, 0.9963383674621582], "min" : [-0.9998452663421631, -0.9930080771446228, -0.9983366131782532], "name" : "NORMAL"}, {"bufferView" : 4, "byteOffset" : 24, "componentType" : 5126, "count" : 3366, "type" : "VEC2", "max" : [0.9980469942092896, -0.004137992858886719], "min" : [0.0019529999699443579, -0.9980469942092896], "name" : "TEXCOORD_0"}, {"bufferView" : 0, "byteOffset" : 83616, "componentType" : 5123, "count" : 4146, "type" : "SCALAR", "max" : [4145], "min" : [0]}, {"bufferView" : 5, "byteOffset" : 0, "componentType" : 5126, "count" : 4146, "type" : "VEC3", "max" : [0.22205740213394165, -0.8620666265487671, 0.23220370709896088], "min" : [-0.29509469866752625, -1.85780668258667, -0.23175033926963806], "name" : "POSITION"}, {"bufferView" : 5, "byteOffset" : 12, "componentType" : 5126, "count" : 4146, "type" : "VEC3", "max" : [0.9937590956687927, 0.999741792678833, 0.9790814518928528], "min" : [-0.996484637260437, -0.9993225336074829, -0.985014021396637], "name" : "NORMAL"}, {"bufferView" : 5, "byteOffset" : 24, "componentType" : 5126, "count" : 4146, "type" : "VEC2", "max" : [0.9980469942092896, -0.0019530057907104492], "min" : [0.0019529999699443579, -0.9980469942092896], "name" : "TEXCOORD_0"}], "asset" : {"generator" : "Aspose.3D 23.6.0", "version" : "2.0"}, "buffers" : [{"uri" : "data:application/octet-stream;base64,", "byteLength" : 1562460}], "bufferViews" : [{"buffer" : 0, "byteOffset" : 0, "byteLength" : 91908, "target" : 34963}, {"buffer" : 0, "byteOffset" : 91912, "byteLength" : 200064, "byteStride" : 32, "target" : 34962}, {"buffer" : 0, "byteOffset" : 291980, "byteLength" : 248256, "byteStride" : 32, "target" : 34962}, {"buffer" : 0, "byteOffset" : 540240, "byteLength" : 781824, "byteStride" : 32, "target" : 34962}, {"buffer" : 0, "byteOffset" : 1322068, "byteLength" : 107712, "byteStride" : 32, "target" : 34962}, {"buffer" : 0, "byteOffset" : 1429784, "byteLength" : 132672, "byteStride" : 32, "target" : 34962}], "materials" : [{"name" : "Material #78", "pbrMetallicRoughness" : {"baseColorFactor" : [0.09322274476289749, 0.29435455799102783, 1, 1], "metallicFactor" : 0, "roughnessFactor" : 0}, "emissiveFactor" : [0, 0, 0], "alphaMode" : "OPAQUE", "doubleSided" : false}, {"name" : "Material #85", "pbrMetallicRoughness" : {"baseColorFactor" : [0.5424649119377136, 0.5621398687362671, 0.6113812327384949, 1], "metallicFactor" : 0, "roughnessFactor" : 0}, "emissiveFactor" : [0, 0, 0], "alphaMode" : "OPAQUE", "doubleSided" : false}, {"name" : "Material #49", "pbrMetallicRoughness" : {"baseColorFactor" : [1, 0.08104652911424637, 0.08104652911424637, 1], "metallicFactor" : 0, "roughnessFactor" : 0}, "emissiveFactor" : [0, 0, 0], "alphaMode" : "OPAQUE", "doubleSided" : false}, {"name" : "Material #82", "pbrMetallicRoughness" : {"baseColorFactor" : [0, 0, 0, 1], "metallicFactor" : 0, "roughnessFactor" : 0}, "emissiveFactor" : [0, 0, 0], "alphaMode" : "OPAQUE", "doubleSided" : false}, {"name" : "Material #83", "pbrMetallicRoughness" : {"baseColorFactor" : [0.7254905104637146, 0.2795698642730713, 0.03418801352381706, 1], "metallicFactor" : 0, "roughnessFactor" : 0}, "emissiveFactor" : [0, 0, 0], "alphaMode" : "OPAQUE", "doubleSided" : false}], "meshes" : [{"primitives" : [{"attributes" : {"POSITION" : 1, "NORMAL" : 2, "TEXCOORD_0" : 3}, "indices" : 0, "material" : 0, "mode" : 4}], "name" : ""}, {"primitives" : [{"attributes" : {"POSITION" : 5, "NORMAL" : 6, "TEXCOORD_0" : 7}, "indices" : 4, "material" : 1, "mode" : 4}], "name" : ""}, {"primitives" : [{"attributes" : {"POSITION" : 9, "NORMAL" : 10, "TEXCOORD_0" : 11}, "indices" : 8, "material" : 2, "mode" : 4}], "name" : ""}, {"primitives" : [{"attributes" : {"POSITION" : 13, "NORMAL" : 14, "TEXCOORD_0" : 15}, "indices" : 12, "material" : 3, "mode" : 4}], "name" : ""}, {"primitives" : [{"attributes" : {"POSITION" : 17, "NORMAL" : 18, "TEXCOORD_0" : 19}, "indices" : 16, "material" : 4, "mode" : 4}], "name" : ""}], "nodes" : [{"mesh" : 0, "name" : "Mesh-0"}, {"mesh" : 1, "name" : "Mesh-1"}, {"mesh" : 2, "name" : "Mesh-2"}, {"mesh" : 3, "name" : "Mesh-3"}, {"mesh" : 4, "name" : "Mesh-4"}, {"children" : [0, 1, 2, 3, 4], "matrix" : [0.14056205981608372, 0.17828703393892656, -0.09640461033535497, 0, -0.18616440343567978, 0.1599566678926827, 0.024382110542349497, 0, 0.08014319565760743, 0.058867705813543725, 0.22571992408315775, 0, -0.19995616376399994, 0.10717056691646576, 0.005689246580004692, 1], "name" : "rocket4"}], "scene" : 0, "scenes" : [{"nodes" : [5]}]}